# xmcd
#
# Track frame offsets: 
#        150
#        16088
#        30068
#        45665
#        64547
#        78086
#        90444
#        106172
#        125568
#        144906
#        167241
#        187261
#        203831
#        221793
#        239527
#
# Disc length: 3423 seconds
#
# Revision: 0
# Processed by: cddbd v1.5.2PL0 Copyright (c) Steve Scherf et al.
# Submitted via: ExactAudioCopy v0.95b4
#
DISCID=bf0d5d0f
DTITLE=George Strait - It Just Comes Natural
DYEAR=2000
DGENRE=Country
TTITLE0=Give It Away
TTITLE1=She Told Me So
TTITLE2=That's My Kind Of A Woman
TTITLE3=Wrapped
TTITLE4=It Just Comes Natural
TTITLE5=He Must Have Really Hurt You Bad
TTITLE6=Heart Like Hers, A
TTITLE7=Why Can't I Leave Her Alone
TTITLE8=One Foot In Front Of The Other
TTITLE9=I Ain't Her Cowboy Anymore
TTITLE10=Texas Cookin'
TTITLE11=Better Rain, A
TTITLE12=How Bout Them Cowgirls
TTITLE13=What Say
TTITLE14=Come On Joe
EXTD=
EXTT0=
EXTT1=
EXTT2=
EXTT3=
EXTT4=
EXTT5=
EXTT6=
EXTT7=
EXTT8=
EXTT9=
EXTT10=
EXTT11=
EXTT12=
EXTT13=
EXTT14=
PLAYORDER=
